<svg xmlns="http://www.w3.org/2000/svg" viewBox="0 0 741 121" height="33" width="200">
    <title>The Design Tokens Book</title>
    <g fill="#3E3009">
        <path
            d="M366 59.3V59v.3-.1.2l1-6.7.5-3.2 4.3-.6 12-1.6 12.1-1.7 12.2-1.6 12-1.7 12.3-1.6c.7-.1 1.5-.3 2.3-.3a6.8 6.8 0 0 1 7.5 6 6.8 6.8 0 0 1-6 7.5c-.8 0-1.6.2-2.3.3l-2.9.4-6.2.8-12.2 1.7-11.8 1.6-12.4 1.7-12 1.6-11 1.5.6-4Z" />
        <path
            d="m378.1 60.8 1.8-6.8.2-1a6.6 6.6 0 0 1 2.7-3.3c1.5-1 3.4-1.4 5.1-1a6.8 6.8 0 0 1 5.3 8l-.8 3.1-4 .8-7.3 1.3-3.5.7.5-1.8ZM418 75.3h-.1a34.7 34.7 0 0 0-2.3.6 24.7 24.7 0 0 0-2.8 1.7 32.9 32.9 0 0 0-3.1 3A30 30 0 0 0 407 85a25.3 25.3 0 0 0-1.3 4.7 24.2 24.2 0 0 0 0 4 21.5 21.5 0 0 0 .7 3l.5 1 .5.7.5.6.6.5.5.4.7.4.7.2a17 17 0 0 0 1.7.3l.9-.1 1-.2a22.4 22.4 0 0 0 2.8-1.2 24.4 24.4 0 0 0 3-2.3 30.3 30.3 0 0 0 2.9-3.6 34.1 34.1 0 0 0 2-4.4v-.5a33.9 33.9 0 0 0 .7-4.4 23.4 23.4 0 0 0-.4-3.5 19 19 0 0 0-1-2.3 21.5 21.5 0 0 0-1-1.3l-.6-.6-.6-.4-.6-.3-.7-.2-.7-.2h-.1a10 10 0 0 0-1.8 0Zm-5.9 39c-1.6 0-3.2-.1-4.7-.6l-2.4-.7-2.3-1.1a19.2 19.2 0 0 1-7-6.7 24 24 0 0 1-3.6-12.4l.1-4.1.4-2.7.5-2v-.2l.1-.1.7-2.3 1-2.2 1.5-3a31 31 0 0 1 12-11.9 26 26 0 0 1 3.4-1.4l.3-.1a21.4 21.4 0 0 1 9.2-1l1 .1c.5 0 1 .2 1.4.3a19.7 19.7 0 0 1 8 4.2l.7.6.4.4-.2-.2-.2-.1.5.4 1.2 1.4 1.4 2a23.4 23.4 0 0 1 3.6 12.4 32.3 32.3 0 0 1-1 8.3v.3l-.3.8v.3l-.2.4-.2.7a35.8 35.8 0 0 1-6 10.5 28 28 0 0 1-4.1 4l-1 .8h-.2a27.3 27.3 0 0 1-7.1 3.8l-.6.1-.4.2a24 24 0 0 1-4.5.7h-2.1.8v.1ZM433 67.6v.1-.1Zm110.9-38.4ZM570.6 90c-4.8-4.6-10-15.2-1-18.2 3-.9 6.2.5 7.7 3.1 1 2 .9 3.4 2.6 5.2 2.9 3.7 6.7-.3 7.3-3.7 1.6-7.9-11.8-12.3-14.9-19.5-2.3-4.2-1.9-9.5.6-13.5 8-12.7 24.5-8.2 31 3.6 2.8 4.3 3.2 9.6-2 12.1a6.8 6.8 0 0 1-8-2.1c-1.2-1.5-1.5-3.4-2.7-4.7-1.5-1.8-5.3-4.7-6.8-1.6 1.7 2.5 4.5 4 6.7 6.1a27 27 0 0 1 8.7 11.6c4.5 11.7-4.5 27-17.5 26.8h-.3a17 17 0 0 1-11.4-5.2Zm-80.3 16.5a6.9 6.9 0 0 1-5-5.7v-1c0-.5 0-1.1.2-1.7l1.2-5.1 1.5-6.9 1.5-6.8 1.6-7.1 1.5-7.2 1.6-7a1462 1462 0 0 0 3.1-14.3l.4-1.7.3-.8a6.7 6.7 0 0 1 2.9-3.2 6.9 6.9 0 0 1 9.2 2.4c.5.8.8 1.7.9 2.5v1a7 7 0 0 1-.2 1.8l-1.5 7-1.6 7-1.6 7.2-1.5 7-1.6 7-1.5 7-1.5 7-1.3 5.9-.2 1a6.8 6.8 0 0 1-6.6 5h-.3l-1.5-.3Z" />
        <path
            d="M491.6 106.2a6.9 6.9 0 0 1-5-5.7 6.8 6.8 0 0 1 5.9-7.6l1-.1h.3l4.5-.5 6.4-.6 6.7-.7 6.4-.6 2.4-.3a6.9 6.9 0 0 1 7.5 6 6.8 6.8 0 0 1-5.9 7.5l-6 .6-6.7.7a1403 1403 0 0 0-13 1.3l-2 .2H493c-.5 0-1 0-1.4-.2Zm5.7-27.2a6.8 6.8 0 0 1-1.1-9.6 6.8 6.8 0 0 1 4.6-2.5l5.6-.6 5.6-.5c1.7-.2 3.5.3 4.9 1.4a6.8 6.8 0 0 1 1 9.6 6.8 6.8 0 0 1-4.6 2.5l-5.9.6-5.2.5a8 8 0 0 1-.7 0h-.3c-1.4 0-2.8-.5-4-1.4Zm3.3-31.5a6.8 6.8 0 0 1-1-9.6 6.7 6.7 0 0 1 4.8-2.5c1.8 0 3.5-.2 5.2-.3l6.6-.4 3.1-.2a6.8 6.8 0 0 1 1.2 13.6l-6.2.3-6.5.4-1.8.2h-1.3c-1.5 0-2.9-.6-4-1.5Zm44.8 48.1a7 7 0 0 1-2.3-3.9l-.4-1.7-1.6-7.6-1.7-7.8-1 5a6.9 6.9 0 0 1-2.7 4.3 6.8 6.8 0 0 1-10.6-6.8l1.5-7.5 1.5-8 1.6-7.9 1.5-7.5.6-3.4.3-1.6.2-.8v-.5c.3-1 .6-1.8 1.1-2.6a6.8 6.8 0 0 1 12.1 1.3l.3 1v.1l.1.3.3 1.3.8 4 1.8 8.1 1 5 .2-.7 1.7-8 1.8-8.1 1.6-7.8 1.2-5.5.5-2a6.8 6.8 0 0 1 13.4 2.4 583.2 583.2 0 0 1-2.4 10.8l-1.7 8-1.7 8-1.8 8.2-1.8 8-1.7 8-1.7 8-.8 3.5v.2l-.3 1c-.3 1.2-1 2.2-2 3a6.8 6.8 0 0 1-8.9.2Zm-104.1 6.8v-.4a15.4 15.4 0 0 0 0 .4Zm22.9-38.6Zm0 0Zm4.8-4.1h-.1.1Zm6-5.6h.2-.3Z" />
        <path
            d="M445.6 108.7a6.8 6.8 0 0 1-4.8-8.6l1.5-5.9 2-7.6 2-7.7 2-7.6 2-7.9c.8-2.6 1.4-5.3 2.1-8l2-7.6 2-7.6.4-1.4a6.9 6.9 0 0 1 3-4.1c1.6-1 3.5-1.2 5.3-.7a6.8 6.8 0 0 1 4.8 8.3v.4c-.2.3-.3.6-.3 1v.1l-1.6 5.8-2 8-2.1 7.7-2 8-2 7.6-2 7.7-2 7.6-1.8 6.7-.2.6v.4a6.8 6.8 0 0 1-8.4 4.9Z" />
        <path
            d="M471 107.2a6.7 6.7 0 0 1-4-3.3l-2.8-5-3-5.3-3.1-5.6-3.3-5.7c-1-2-2.2-3.8-3.2-5.7l-1.3-2.3c-.9-1.5-1-3.5-.4-5.2a6.8 6.8 0 0 1 12.5-1l3.2 5.6 3.2 5.6L472 85l3 5.4a1396.8 1396.8 0 0 0 3.8 6.7l.3.5c.9 1.5 1 3.5.4 5.2a7 7 0 0 1-3.3 4 6.9 6.9 0 0 1-5.2.4Z" />
        <path
            d="M452.8 79.7a6.8 6.8 0 0 1-2.3-7.2l.4-.9.9-1.5 1.6-1.7.5-.5.5-.6 4.4-4.8 1.8-2 .5-.6.5-.5.6-.7 4.5-4.8 4.4-4.8 4.2-4.6 3.8-4.2 1.7-1.8v-.1l.4-.4h.1l.1-.2a6.7 6.7 0 0 1 4-1.9c1.8-.2 3.7.3 5 1.5a6.8 6.8 0 0 1 .7 10l-2.2 2.4-4 4.3-4.2 4.6-4.4 4.8-3.6 3.9-.5.6-.8.8-.5.6a1812 1812 0 0 1-4.3 4.7l-1.7 1.8-.5.5-.6.7-1.5 1.6-.6.6a6.7 6.7 0 0 1-3.9 1.9h-1c-1.5 0-3-.6-4-1.5Zm-79.4 34.2a7 7 0 0 1-5.4-8.1v-.6h.1l2-10.5 2.1-11.2 2.2-11.3 2-11 2-10.3.4-1.7c.3 1 1.2 1.7 2.2 2l1.8.2h1.4l5.7-.5h.3l2.2-.2v.5l-1.9 9.7-2 10.9-2.2 11.2-2.1 11.3-2.2 11.4-.4 2v.2l-.1.6a7 7 0 0 1-6.4 5.5h-.4l-1.3-.1Zm-260.2 0a6.9 6.9 0 0 1-5.5-5c-.2-1-.3-2 0-2.8.5-2.8 1-5.5 1.7-8.2l2.1-10.2 2.3-10.4 2.2-10.6 2.3-10.7 2.2-10.3 2.2-10.6 2.3-10.8.2-.9c.2-.8.5-1.7 1-2.4.4-.8 1-1.4 1.7-2a6.8 6.8 0 0 1 9.5 1.5 6.7 6.7 0 0 1 1.2 5.2l-2.1 10.1-2.3 10.6-2.2 10.4-2.3 10.7-2.2 10.5-2.3 10.6-2.2 10.2-1.8 9-.2.5-.2.9a6.6 6.6 0 0 1-2.5 3.5 6.9 6.9 0 0 1-5 1.2Z" />
        <path
            d="M103.6 120.2c-6.3-.8-8-9.4-2.5-12.6 2.6-1.2 5.6-1.4 8.3-2.5a39.3 39.3 0 0 0 15.6-9.8 76 76 0 0 0 18.8-33.9c2.5-10.1 5.3-24.5-.6-33.9-3-4.7-7-5-12.1-4.3-5 .7-9.7 2.9-13.6 6-1.6 1.3-2.5 3.3-4.5 4-4.3 2-9.6-1.6-9.4-6.3 0-3 2-5.2 4-7.1a39.9 39.9 0 0 1 33.6-9.7 23 23 0 0 1 13.1 9.6c9.4 14.3 6 33 1.7 48.5-6.5 20.3-19.2 40.9-39.9 48.9-2 .8-4.3 1.5-6.4 2.1-1.8.4-3.5 1-5.3 1h-.8Zm94.2-13.6h-.4.4Zm151.5-23.1a6.9 6.9 0 0 1-5.4-4.4l-.1-.5-.4-1-1.5-3.8-3.1-8-3.2-8.3-3.4-8.4c-1-2.8-2.2-5.5-3.3-8.3l-2-4.9-1 8.1-.1 1.3a6.8 6.8 0 0 1-12.2 2.9c-.5-.7-.9-1.5-1.1-2.4-.2-.9-.2-1.8-.1-2.7l1-7.7 1-9c.5-2.8.8-5.6 1.2-8.5l1-8 .2-1.8a6.8 6.8 0 0 1 3.5-5.1l.8-.4 1.7-.4a6.8 6.8 0 0 1 4.4 1l.7.5a6.8 6.8 0 0 1 1.7 2l.4 1v.1l1.1 2.7 3.3 8.2 3.4 8.5 3.3 8.4 3.3 8.3a5724 5724 0 0 0 3 7l1.3-9 1.2-8.6 1.3-8.9 1.2-8.7 1.2-8v-.8A6.8 6.8 0 0 1 365.9 3a7 7 0 0 1 1.3 5.1l-1 7.5-1.3 8.6-1.3 8.8-1.2 8.9a2636.4 2636.4 0 0 1-3.8 26.4l-1.2 8.6-.1.8c-.1.6-.3 1.3-.6 1.8a6.9 6.9 0 0 1-7.3 4Zm-69.3 12c-8.8-1.4-13.7-8.6-14.6-17-1.6-16 3.5-36 11-50.2 4-8.2 13.7-17 23.2-12 7.1 4 7.5 13.2 6.2 20.3-.5 2.7-1 5.4-1.7 8-.2.9-.7 1.7-1.2 2.4-3.6 4.6-11.5 2.4-12-3.5 0-4.8 2.2-9.5 1.9-14.5-7.9 6.2-12.8 28-14 38 0 3.4-1.2 13.4 2.6 14.8 5.7 2 10.5-8.2 11.4-12.7.5-2.4.5-5.2 2.6-7 3.3-3.3 9.4-2 11 2.5 1.3 3.4-.9 10-2.1 13.4-3.5 8.8-11.4 17.7-21.3 17.7-1 0-2 0-3-.3Z" />
        <path
            d="M284.6 72.6a6.8 6.8 0 0 1-1.2-9.5 7 7 0 0 1 4.5-2.6l3.6-.5 5.5-.8 6-.9 6.6-1 6.4-.9 5.3-.8a6.8 6.8 0 0 1 7.6 5.9 6.8 6.8 0 0 1-5.8 7.6l-6.3 1-6.6.9-6.3 1-6 .8-5.3.8-3 .4h-.8a7 7 0 0 1-4.2-1.4Zm20.9 18.3h.1-.1Zm-82.9 9.1Zm-61.7 5.6a6.7 6.7 0 0 1-4.9-5.5v-1c0-.6 0-1.2.2-1.7l1.4-6.8 1.2-5.6.5-2.7a150.8 150.8 0 0 0 .8-3.8l.9-4.4v-.3l.3-1.4.3-1.2a48.4 48.4 0 0 1 .7-3.6l.3-1.4 1-5.2.4-1.6.3-1.3c0-.5.2-1 .3-1.4 0-.5.2-1 .3-1.4 0-.3 0-.6.2-.9 0-.6.2-1.2.3-1.6l.3-1.5.2-1a126.3 126.3 0 0 0 .5-2.7l.3-1c0-.6.2-1.1.3-1.7l.2-1 .3-1.3.2-1.2.3-1.2.1-.8.1-.4.2-1v-.2l.2-.8 1-5c.2-.4.3-.6.3-1l1-1.4c.4-.7 1.1-1.2 1.8-1.7a6.7 6.7 0 0 1 10 4.9v.9c0 .6 0 1.2-.2 1.8l-1 4.8v.1l-.3 1.5v.5-.3l-.3 1.2-.2 1.3-.3 1.1-.2 1.2-.2 1-.4 1.8-.3 1.2-.2 1.4-.3 1.1-.2 1.1c0 .6-.2 1.1-.3 1.7l-.2 1-.3 1.3-.3 1.2-.2 1.4-.3 1.2-.3 1.4-.7 3.6-.4 2-.3 1.3-.3 1.5-.3 1.2-.1.8-.2 1.2-.3 1-.1.9-.8 4-.2.8-.2.7-.4 2-.2 1-.3 1.8L170 96l-.8 4-.2 1-.3.8c-.2.5-.5 1-.9 1.4a6.7 6.7 0 0 1-7 2.4Z" />
        <path
            d="M175.8 39.4c-.9-.1-1.7-.5-2.4-1a6.7 6.7 0 0 1-2-9.2 6.7 6.7 0 0 1 4.4-2.9h.7l5.1-.9 6.3-1 6.4-1h.7c.8-.2 1.7-.3 2.5 0 .9 0 1.7.4 2.4.9a6.7 6.7 0 0 1 2 9.2 6.6 6.6 0 0 1-4.4 3l-6.2.9-6.3 1-6.1 1h-.6a8.4 8.4 0 0 1-2.5 0Zm-8 34.6c-3.9-2.6-3.6-8.8.5-11 2.6-1.4 5.8-1.3 8.6-1.9l6.3-.9c3.5-.8 7.7-.7 9.6 2.8 1.9 3 .8 7.4-2.3 9.2-1.8 1-4 .9-6 1.3l-9.3 1.4c-1.1.2-2.3.4-3.5.4a6 6 0 0 1-4-1.2Zm-8.1 30a6.7 6.7 0 0 1-1.3-9.3 7 7 0 0 1 2-1.8l.7-.4 1.7-.4 5.3-.9 6.3-1 6.3-1 6.5-1 2.3-.3c1.7-.3 3.5.2 4.8 1.2a6.7 6.7 0 0 1 1.4 9.4 6.8 6.8 0 0 1-4.5 2.6 1369.1 1369.1 0 0 0-12.5 2l-6.3 1-6 1-1.8.2h-1c-1.3 0-2.8-.4-3.9-1.2Zm86.8-9a6.8 6.8 0 0 1-5.3-5.3c-.2-.9-.1-1.8 0-2.7l.8-4.8 1.1-6.4 1.1-6.4 1.1-6.5 1.2-6.7 1-6.5 1.2-6.3c0-.7.2-1.3.3-2a6.8 6.8 0 0 1 12.3-2.3 7 7 0 0 1 1 5.1l-1 6.2-1.1 6.4-1.2 6.5-1 6.5-1.2 6.5-1 6.5-1.1 6-.1.7v.2c-.2.9-.6 1.7-1 2.5a6.8 6.8 0 0 1-7.1 2.8Zm6.1-64.5a7.7 7.7 0 0 1 0-10.9 7.7 7.7 0 0 1 10.9 0 7.7 7.7 0 0 1 0 10.9 7.7 7.7 0 0 1-10.9 0Zm-42.2 40.9v-.1.1Zm3.6 22.4a17.8 17.8 0 0 1-13.5-17.4c.1-3.6.4-8 3.9-10 3-2 7.5-1 9.3 2.2 1.4 2.2.8 4.7.4 7-.2 2.2 1 4.6 3.2 5 4.6 1 5.8-3.3 5.5-7-.6-5.4-4.6-9.3-7.7-13.4a45 45 0 0 1-4.6-7c-4.6-8.8-4.6-20.8 2.7-28 6-6.4 15.9-7.6 22.3-1.1 5.4 5.2 7 12.4 7 19.6-.8 7.2-11.3 8.1-13.3 1-.8-3.8 0-8.8-3.8-11.3-5 1-5 7.7-3.6 11.6 1.4 4 4.3 7.1 6.9 10.4 3.5 4.4 6.5 9.4 7.4 15 2.3 13.5-6.2 25.4-19.9 23.8-.7 0-1.4-.2-2.2-.4Z" />
    </g>
    <g fill="#F7CC4A">
        <path
            d="M621.5 94.4c-2.3-.6-3.6-3-3-5.3l2.2-8.3 3.1-11.9L627 57l2.5-9.6c.6-2.2 3-3.6 5.3-3 2.2.7 3.6 3 3 5.3l-3 11.4-3.2 11.9-3.1 11.7-1.8 6.7a4.3 4.3 0 0 1-5.3 3Z" />
        <path
            d="M621.7 95.5c-5-1.5-3.5-9 1.8-8.3 3.6.1 7.1-1.1 10.7-1.6 5.1-1 11-3.3 13.4-8.3.7-1.9-.4-3.9-2-4.9-3.5-2-8-1.2-11.8-.4-4.9.6-6.8-6.3-2.2-8.2 2.2-.7 4.3-1.8 6.4-2.7a15 15 0 0 0 4.6-3.4c1-1.3 2.5-3 1.4-4.6-1.5-2.4-4.8-1.8-7.2-1.5-1.4.3-2.8.9-4.2.7a4.3 4.3 0 0 1-3.4-6 4.5 4.5 0 0 1 3.8-2.6c1.8-.4 3.5-.8 5.2-.9 5.8-.7 11.4 1.8 13.9 7.3 2.2 5-.3 10.5-3.9 14 10.7 5.1 10.4 17.2 1.4 24-5 4.2-11.7 5.6-18 6.7-3.3.6-6.6 1.4-9.9.7Z" />
        <path
            d="M665.3 80.7h.1l.3-.1.4-.2.6-.3.6-.5 1-1a20 20 0 0 0 3.6-6.5 36.9 36.9 0 0 0 1.7-8 35 35 0 0 0-.3-6.5 23 23 0 0 0-1-3.3l-.5-.8-.4-.6-.3-.3-.3-.1-.1-.2h-1l-.4.2a9.9 9.9 0 0 0-1.3.8 21.4 21.4 0 0 0-2 2.3 33.5 33.5 0 0 0-2.6 5.4 43 43 0 0 0-1.6 7.8 34 34 0 0 0 .3 6.5 19.6 19.6 0 0 0 1 3.3l.5.8.4.6.3.3.2.2h.3v.1h.2l.1.1h.1Zm-2.4 8.3a10.2 10.2 0 0 1-5.2-3.3c-.8-1-1.5-2-2-3a22.2 22.2 0 0 1-2.2-7 36.7 36.7 0 0 1 3-20.3v-.3l1.7-3a21.3 21.3 0 0 1 5-5.9 13 13 0 0 1 4.2-2.1l.4-.1 1.1-.2a9.3 9.3 0 0 1 6.2 1.2 10.8 10.8 0 0 1 3.1 2.8 17.5 17.5 0 0 1 2.4 4.5c.9 2.1 1.3 4.3 1.5 6.6a37 37 0 0 1-8.8 26.8 13.8 13.8 0 0 1-5.5 3.2l-2.4.3h-.3c-.7 0-1.5 0-2.2-.2Z" />
        <path
            d="M690.5 77.9h.3l.3-.2.4-.2a8.9 8.9 0 0 0 2.5-2.6 26.3 26.3 0 0 0 4.3-10c.3-1.6.6-3.2.7-4.7.1-1.4.2-2.7.1-4a27.7 27.7 0 0 0-.8-5 18 18 0 0 0-.8-2 7 7 0 0 0-.4-.5l-.2-.2-.1-.1-.1-.1h-.5l-.3.1-.4.3-.6.4-.8.8h-.1a21.5 21.5 0 0 0-2.5 3.6A36 36 0 0 0 688 66a36.6 36.6 0 0 0 .1 7 22 22 0 0 0 1 3.3 9.8 9.8 0 0 0 .7 1.2l.3.2.1.1.1.1h.2Zm-2.7 8a9.5 9.5 0 0 1-4.6-3.1l-1.2-1.7-.8-1.7a29.3 29.3 0 0 1-1.9-9.9 42.3 42.3 0 0 1 2.2-14.2V55l.1-.2.7-1.8.1-.2c.8-2 1.8-4 3-5.7l.7-1 .2-.2a18.2 18.2 0 0 1 4.2-4.2c2-1.3 4.2-2.2 6.6-2a9 9 0 0 1 4.4 1.5 13.2 13.2 0 0 1 2.8 2.8 18 18 0 0 1 2.7 6.6 41.5 41.5 0 0 1-7 30.6l-3 2.8a10.8 10.8 0 0 1-6.5 2.4h-.2c-.8 0-1.7-.1-2.5-.4Z" />
        <path
            d="M688.4 59.7Zm-3.4.7c-.5 0-1-.3-1.3-.5l-.4-.3v.1h.1c-3.8-2.7-1-8.8 3.6-7.6 5.3 1.5 3.4 9.4-2 8.3Zm23.6 24.8c-1-.3-2-1-2.6-2a4 4 0 0 1-.4-3.2l2-9.6 2.6-11.6 2.7-12.2 1.7-7.9.5-1.3c.3-.5.6-1 1-1.3a4.3 4.3 0 0 1 6 .8c.7.8 1.1 2 1 3.2l-1.2 5.2a1290.8 1290.8 0 0 0-4 18.2l-2.5 11.6-1.5 7v.1a4.3 4.3 0 0 1-5.3 3Z" />
        <path
            d="M731.7 82a4.3 4.3 0 0 1-2.9-1.5l-6.7-8.2-7.7-9.4-1-1.2-.1-.2-.5-.6a4.3 4.3 0 0 1 .6-6 4.3 4.3 0 0 1 6 .6l.5.6 7 8.6 7.5 9 .9 1.1v.1h.1v.1a4.3 4.3 0 0 1-.5 6c-.8.7-1.8 1-2.8 1h-.4Z" />
        <path
            d="M713.3 63a4.3 4.3 0 0 1-1.5-2.8 4 4 0 0 1 .9-3.2l.2-.3 7.2-8.9 7.8-9.5 4.3-5.3c.7-.9 1.7-1.4 2.8-1.6 1.1-.1 2.3.2 3.2 1a4.3 4.3 0 0 1 .7 6h-.1l-.2.2-4.5 5.5-7.8 9.6-6.5 8.1v.1l-.2.1-.2.3a4.3 4.3 0 0 1-6 .7Z" />
    </g>
    <g fill="#F7CC4A">
        <path
            d="M16.2 99.3a4.2 4.2 0 0 1-3-5l1.4-5.1 1.5-6 1.6-5.7 1.6-6 1.6-6 1.5-5.8 1.4-5.3v-.1c.4-1 1-2 2-2.5.9-.6 2-.8 3-.5a4.2 4.2 0 0 1 3 5v.2l-.1.5-1.4 5-1.6 6.2-1.6 5.8-1.5 5.8-1.6 6-1.5 5.8-1 3.8-.3.8c-.3 1-1 2-1.8 2.6a4.1 4.1 0 0 1-3.2.4Z" />
        <path
            d="M3.6 62.4a4.1 4.1 0 0 1-3.3-3.2 4.2 4.2 0 0 1 1.6-4.3c.5-.3 1-.6 1.5-.6h.2l.5-.1h.3V54a9.2 9.2 0 0 0 .6 0l.2-.1 1.5-.2.5-.1h.3l.4-.1.6-.1.6-.1 1-.2h.7l.4-.1.7-.1.6-.1.4-.1h.7l.3-.1.9-.2h.5l.4-.1h.5l.2-.1.7-.1 1-.2h.8l.5-.2h.7l.4-.1h.3l.4-.1.8-.2 2.4-.3H24h.8l.3-.1.7-.1 1.1-.2h.6l.5-.2c.5 0 .9 0 1.3-.2h.9l1.2-.3 1-.1a147 147 0 0 0 1.6-.3h.7l.3-.1h.4l.4-.1 1-.2h.4l.5-.1 1-.2h.5l.3-.1h.5l.3-.1.5-.1h.5a23.8 23.8 0 0 1 1.3-.3l1-.1.8-.2h.3l.5-.1h.7l.1-.1h.5v-.1h.7-.2.2l.1-.1h.4l.9-.2h.3l.6-.1.5-.1h1.2a4.1 4.1 0 0 1 3.3 3.2c.2 1 0 2.2-.5 3a4 4 0 0 1-2.7 2h-.8l-.6.1-.5.1h-.5l-.2.1h-.2l-.3.1h-.5l-.2.1H47l-.4.1-.5.1h-.4l-.5.2h-.7l-.4.1h-.4v.1h-.1l-.7.1h-.5l-.3.1a12 12 0 0 1-1.3.2h-.4a4 4 0 0 1-.5.2H39l-.5.2h-.3a131.5 131.5 0 0 0-.9.2h-.8.1-.1l-.5.2h-.5l-1.1.2-.9.1-1 .2-.8.1-.8.1-2 .3a4 4 0 0 1-.3 0l-.3.1h-.2L27 59l-.6.1h.1-.1l-.8.1-2.5.4-.7.1h-.2l-.4.1h-.3l-.5.1-.3.1h.5-1l-.7.2-1 .1-.7.2.3-.1h.1-.1l-.6.1h-.6l-.4.1h-.3l-1 .2H15l-.4.2h-1l-.7.2h-.4l-.5.1h-.2l-.6.1-.7.1h-.3l-.1.1h-.5l-.3.1h-.4l-.1.1h-.4l-.2.1-1.7.3a6.7 6.7 0 0 1 .2 0h-.4a4 4 0 0 1-.4 0h-.2v.1H5l-.2.1h-.2a4.3 4.3 0 0 1-1 0Zm28.6 33.8a4.3 4.3 0 0 1-2.8-5.1l.2-.8v-.1l1.2-4.5 1.5-6 1.5-5.7 1.6-6 1.2-4.5a4.1 4.1 0 0 1 8 1.5l-.1.9-.2.7-.4 1.6L43 71l-1.5 6-1.5 6-1.6 5.9-1.2 4.6a4 4 0 0 1-5 2.8Zm19.5-.9a4.2 4.2 0 0 1-3-5L50 86l1.4-5.8 1.6-6 1.5-6 1.5-5.9 1.5-5.8 1.5-6 .6-2a4.2 4.2 0 0 1 5-2.9 4.2 4.2 0 0 1 3 5l-.2.4v.1L66 56.3l-1.6 6.1-1.5 6-1.5 6-1.5 5.8-1.6 5.9-1.3 5.4-.3 1a4.2 4.2 0 0 1-5 2.8Z" />
        <path
            d="M38.3 81.4c-4.6-.5-5-7-.5-8.1l11.4-1.6 2.8-.4c2-.2 4.3-.8 5.8.8 2.1 2 1.5 5.8-1.2 6.8-1.2.5-2.5.4-3.7.6-4.9.6-9.7 1.5-14.6 2Zm27.1 12.3a4.2 4.2 0 0 1-2.8-3.5v-.5l.1-1.1 1.4-5.4.2-1 .1-.6.6-2.4.1-.5.5-1.8.2-1 .2-1 .2-.8.5-1.8.2-.8c0-.4.2-.7.3-1l.8-3.6.4-1.4c0-.5.2-1 .3-1.4l.3-1.4.4-1.5v-.1l.4-1.6v-.1l.5-1.8-.1.4.5-2.1a29.7 29.7 0 0 1 .7-2.9l1-4c0-.4.4-1 .7-1.3a4.2 4.2 0 0 1 4.4-1.3 4.2 4.2 0 0 1 2.9 3.5v.5c0 .4 0 .8-.2 1.1v.3l-.1.2-.7 3-.3 1.1-.5 2-.4 1.7v.2l-.4 1.5v.2l-.5 1.6v.1-.2l.1-.1a77.9 77.9 0 0 1-.8 3.2l-.3 1.4-.3 1-.8 3.5-.3 1-.2 1-.5 2.2-.3 1-.2.9-.2.8-.4 1.7-.2.7-.6 2.4-.1.5-1.4 5.6-.2 1c-.1.5-.5 1-.8 1.4a4 4 0 0 1-3.2 1.5 4 4 0 0 1-1.2-.2Z" />
        <path
            d="M75.7 53.9a4.1 4.1 0 0 1-2.9-3.6 4.2 4.2 0 0 1 2.3-4 4.7 4.7 0 0 1 1.6-.5l4.9-.7 5.9-.8 3.3-.5h1.4l1.5.6c1 .6 1.6 1.5 1.8 2.6a4.2 4.2 0 0 1-1.6 4.3l-1.5.6-6.1.9-6 .8a207.9 207.9 0 0 1-2.9.4H77a4 4 0 0 1-1.2-.1ZM64.6 93.3a4.1 4.1 0 0 1 1.4-7.6l4.4-.7 5.9-1 6-1 2.4-.5c.5 0 1-.1 1.6 0a4.2 4.2 0 0 1 3.3 3.2 4 4 0 0 1-.6 3 4 4 0 0 1-2.6 1.9l-5.6 1-6 1-5.7 1-1.4.2-.9.1a4 4 0 0 1-2.2-.6Zm3.8-17.4A4.2 4.2 0 0 1 68 70a4 4 0 0 1 2.9-1.4h.2l4.8-.6 5.2-.6a4.2 4.2 0 0 1 4.4 3.9 4.1 4.1 0 0 1-2.3 4l-.5.1-1.1.2-5.6.7-4.6.5H71c-1 0-2-.4-2.7-1Z" />
    </g>
    <style>
        :root.dark [fill="#3E3009"] {
            fill: white;
        }
    </style>
</svg>