<svg width="211" height="47" viewBox="0 0 211 47" fill="none" xmlns="http://www.w3.org/2000/svg">
<path fill-rule="evenodd" clip-rule="evenodd" d="M11.5905 17.2345C9.40251 17.4614 7.4009 18.1705 5.83718 19.2863C4.86456 19.9803 3.23292 21.4507 3.23292 23.5008C3.23292 25.5493 4.86456 27.0197 5.83718 27.7137C7.7622 29.0883 10.3535 29.8462 13.1369 29.8462C14.4174 29.8462 15.6559 29.6831 16.8092 29.3756C13.9968 27.3289 11.9793 22.7867 11.5905 17.2345ZM20.2112 3.75913C18.448 3.75913 17.1835 5.65633 16.5866 6.78727C15.4044 9.0256 14.7541 12.0403 14.7541 15.2751C14.7541 16.764 14.8928 18.2041 15.1573 19.5451C16.9176 16.275 20.824 13.9291 25.5989 13.4771C25.4038 10.9329 24.7939 8.60549 23.8343 6.78727C23.2375 5.65633 21.9729 3.75913 20.2112 3.75913ZM37.188 23.5008C37.188 21.4507 35.5564 19.9803 34.5852 19.2863C32.6602 17.9117 30.0675 17.1555 27.284 17.1555C26.005 17.1555 24.765 17.3169 23.6118 17.6244C26.4241 19.6711 28.4431 24.2133 28.8304 29.7655C31.0184 29.5386 33.0215 28.8295 34.5852 27.7137C35.5564 27.0197 37.188 25.5493 37.188 23.5008ZM20.2112 20.2106C18.6475 20.2106 17.3815 21.6826 17.3815 23.5008C17.3815 25.3174 18.6475 26.7894 20.2112 26.7894C21.7735 26.7894 23.0395 25.3174 23.0395 23.5008C23.0395 21.6826 21.7735 20.2106 20.2112 20.2106ZM20.2112 43.2409C21.9729 43.2409 23.2375 41.3437 23.8343 40.2144C25.0165 37.9761 25.6683 34.9614 25.6683 31.7249C25.6683 30.2377 25.5281 28.7959 25.2636 27.4549C23.5034 30.725 19.597 33.0726 14.822 33.5229C15.0171 36.0671 15.627 38.3962 16.5866 40.2144C17.1835 41.3437 18.448 43.2409 20.2112 43.2409ZM20.2112 47C15.6863 47 12.0747 41.2176 11.5804 33.5347C4.9744 32.96 0 28.7606 0 23.5008C0 18.2394 4.9744 14.04 11.5804 13.4653C12.0747 5.78405 15.6863 0 20.2112 0C24.7347 0 28.3463 5.78405 28.8405 13.4653C35.448 14.04 40.421 18.2394 40.421 23.5008C40.421 28.7606 35.448 32.96 28.8405 33.5347C28.3463 41.2176 24.7347 47 20.2112 47ZM155.594 33.6759V21.9095C155.631 16.2011 152.896 12.8873 148.548 12.8873C146.636 12.8873 143.788 13.9342 142.737 16.4178V13.3242H139.477V33.6759H142.737V22.6505C142.737 18.2478 145.661 16.6363 148.097 16.6363C150.534 16.6363 152.333 18.7284 152.333 22.1279V33.6759H155.594ZM137.352 17.2464C136.415 16.7221 135.477 16.5491 134.802 16.5491C131.316 16.5491 129.93 20.8644 129.93 26.225V33.676H126.633V13.3243H129.93V17.9438C130.829 14.3695 132.516 12.8874 134.84 12.8874C135.766 12.8874 136.714 13.1092 137.352 13.3831V17.2464ZM115.549 16.4618C118.435 16.4618 120.572 18.3792 120.984 21.8661H109.965C110.489 18.2045 112.588 16.4618 115.549 16.4618ZM109.927 25.1346H124.171L124.175 25.0712C124.21 24.5261 124.245 23.9808 124.245 23.4356C124.245 16.9845 120.533 12.8876 115.549 12.8876C110.564 12.8876 106.554 16.9845 106.554 23.4356C106.554 29.8851 110.564 34.1131 115.549 34.1131C118.924 34.1131 122.071 32.2814 123.607 28.7525L120.759 27.4452C119.785 29.4936 117.798 30.5388 115.662 30.5388C112.663 30.5388 110.414 28.7525 109.927 25.1346ZM55.2895 27.6187H52.2531C52.4034 31.803 55.6262 34.1136 58.7754 34.1136C62.4115 34.1136 65.5591 31.803 65.5591 28.0103C65.5591 25.7014 64.6227 23.1723 60.9865 22.1271L58.3996 21.386C57.2767 21.0802 56.1509 20.3408 56.1509 18.946C56.1509 17.3765 57.2767 16.2002 58.9632 16.2002C60.3492 16.2002 61.7366 17.2471 61.7742 18.815H64.9218C64.9218 14.7181 61.8493 12.8881 58.8881 12.8881C55.3647 12.8881 52.8905 15.4592 52.8905 18.815C52.8905 22.0834 54.577 23.7403 57.5007 24.6561L59.8997 25.3081C61.2857 25.6577 62.2988 26.4424 62.2988 27.9683C62.2988 29.6235 60.9865 30.8015 58.7754 30.8015C56.6393 30.8015 55.3271 29.3613 55.2895 27.6187ZM84.0235 33.677V13.3237H80.7631V24.3506C80.7256 28.7517 77.8019 30.3649 75.3653 30.3649C72.9287 30.3649 71.167 28.2728 71.167 24.8733V13.3237H67.9066V25.09C67.869 30.8001 70.5672 34.1139 74.9534 34.1139C76.9015 34.1139 79.7139 33.0233 80.7631 30.496V33.677H84.0235ZM101.446 23.5662C101.446 19.513 98.8964 16.4613 95.6736 16.4613C92.5635 16.4613 89.7512 19.2072 89.7512 23.5662C89.7512 27.9673 92.8251 30.5383 95.6736 30.5383C98.8964 30.5383 101.446 27.6631 101.446 23.5662ZM104.744 23.5225C104.744 29.972 100.808 34.1126 96.0104 34.1126C93.3873 34.1126 90.9131 32.8926 89.7512 30.4963V44.3212H86.4908V13.324H89.7512V16.5487C90.9131 14.1961 93.4624 12.8888 95.9728 12.8888C100.771 12.8888 104.744 17.115 104.744 23.5225ZM172.575 23.435C172.575 19.2507 169.877 16.4629 166.652 16.4629C163.467 16.4629 160.805 19.2507 160.805 23.435C160.805 27.6629 163.467 30.5398 166.652 30.5398C169.877 30.5398 172.575 27.6629 172.575 23.435ZM157.507 23.435C157.507 16.9855 161.668 12.8886 166.652 12.8886C171.638 12.8886 175.835 16.9855 175.835 23.435C175.835 29.8845 171.638 34.1124 166.652 34.1124C161.668 34.1124 157.507 29.8845 157.507 23.435ZM185.816 33.677L193.124 13.3237H189.601L184.242 28.8391L178.844 13.3237H175.358L182.629 33.677H185.816ZM207.74 23.435C207.74 19.0322 204.667 16.4629 201.78 16.4629C198.594 16.4629 196.045 19.3381 196.045 23.435C196.045 27.4882 198.594 30.5398 201.78 30.5398C204.929 30.5398 207.74 27.794 207.74 23.435ZM211 13.3238V33.6772H207.74V30.4508C206.578 32.8051 204.03 34.1124 201.518 34.1124C196.72 34.1124 192.747 29.8845 192.747 23.4787C192.747 17.0275 196.682 12.8886 201.48 12.8886C204.103 12.8886 206.578 14.1086 207.74 16.5049V13.3238H211Z" fill="black"/>
</svg>
