<svg width="665" height="147" viewBox="0 0 665 147" fill="none" xmlns="http://www.w3.org/2000/svg">
<path d="M90.7922 55.5419C100.98 56.8707 109.794 59.5725 117.811 65.2198C128.485 72.7716 128.441 91.9724 117.656 99.48C109.639 105.061 100.758 107.652 90.7258 109.136C89.7735 113.1 88.9984 117.33 87.7582 121.405C85.4993 128.757 82.5981 135.911 76.1315 140.672C67.2951 147.227 56.532 146.408 48.4708 138.546C41.6941 131.946 38.6379 123.442 37.1984 114.296C36.9769 112.878 36.9769 111.417 36.8219 109.313C28.5171 108.361 20.4116 106.567 13.214 102.071C8.18686 98.9485 3.97908 95.3165 1.60943 89.492C-1.7125 81.3422 0.32495 74.6319 5.72863 68.4753C12.3282 60.9677 21.3196 58.0223 30.7317 56.0734C32.4813 55.7191 34.2972 55.7412 36.4676 55.5419C37.3313 47.3256 39.4352 39.8181 43.2443 32.687C46.987 25.6888 52.9001 21.8575 59.9647 19.4436C65.7227 17.4725 76.2865 22.3447 80.8929 28.6342C86.6288 36.4518 88.6662 45.6204 90.7922 55.4755V55.5419ZM74.7805 66.305C85.4993 75.2742 87.6253 87.9418 91.3902 100.853C97.6797 98.3284 103.349 96.1138 108.952 93.7663C117.921 90.0236 120.49 77.2009 108.952 70.6678C98.2334 64.5997 87.0938 63.8467 74.7805 66.2828V66.305ZM45.7025 109.689C47.585 117.463 48.1829 125.059 53.8966 130.928C60.3855 137.549 69.4876 137.173 74.2047 129.333C79.3205 120.829 81.7566 111.417 81.2472 101.385C81.0922 98.4613 81.4465 95.4272 78.036 93.9434C70.3513 105.039 57.7279 106.522 45.7025 109.712V109.689ZM80.915 55.2761C80.0956 51.1569 79.7856 47.525 78.6118 44.1809C77.4159 40.7925 75.6664 37.4706 73.6289 34.503C69.2218 28.1249 60.8727 26.9954 55.5576 32.2219C52.7672 34.9681 49.9989 38.3564 48.7809 41.9884C45.614 51.312 44.9053 60.9899 46.7434 71.9079C55.8898 60.3919 68.2917 57.4243 80.9372 55.2761H80.915ZM36.379 64.7769C28.3621 65.4412 21.4303 67.8773 15.7166 72.1958C7.14598 78.6847 6.52589 84.797 13.9892 90.8872C24.5086 99.48 36.9326 101.916 51.9478 98.4391C41.8712 88.6726 37.5084 77.5109 36.379 64.7769ZM63.3309 91.2416C68.1588 91.3302 72.3666 87.3217 72.4995 82.4717C72.6324 77.6881 68.5574 73.4803 63.7074 73.3474C58.8574 73.2146 54.6718 77.223 54.561 82.1174C54.4503 87.056 58.3923 91.153 63.3309 91.2416Z" fill="black"/>
<path d="M188.95 108.882C184.703 108.882 180.881 108.131 177.484 106.628C174.152 105.06 171.506 102.969 169.546 100.356C167.586 97.6773 166.541 94.7047 166.41 91.438H177.974C178.17 93.7247 179.248 95.652 181.208 97.22C183.233 98.7227 185.749 99.474 188.754 99.474C191.89 99.474 194.307 98.886 196.006 97.71C197.77 96.4687 198.652 94.9007 198.652 93.006C198.652 90.9807 197.672 89.478 195.712 88.498C193.817 87.518 190.779 86.44 186.598 85.264C182.547 84.1533 179.248 83.0753 176.7 82.03C174.152 80.9847 171.931 79.384 170.036 77.228C168.207 75.072 167.292 72.23 167.292 68.702C167.292 65.8273 168.141 63.214 169.84 60.862C171.539 58.4447 173.956 56.55 177.092 55.178C180.293 53.806 183.952 53.12 188.068 53.12C194.209 53.12 199.142 54.688 202.866 57.824C206.655 60.8947 208.681 65.1087 208.942 70.466H197.77C197.574 68.0487 196.594 66.1213 194.83 64.684C193.066 63.2467 190.681 62.528 187.676 62.528C184.736 62.528 182.482 63.0833 180.914 64.194C179.346 65.3047 178.562 66.7747 178.562 68.604C178.562 70.0413 179.085 71.25 180.13 72.23C181.175 73.21 182.449 73.994 183.952 74.582C185.455 75.1047 187.676 75.7907 190.616 76.64C194.536 77.6853 197.737 78.7633 200.22 79.874C202.768 80.9193 204.957 82.4873 206.786 84.578C208.615 86.6687 209.563 89.4453 209.628 92.908C209.628 95.9787 208.779 98.7227 207.08 101.14C205.381 103.557 202.964 105.452 199.828 106.824C196.757 108.196 193.131 108.882 188.95 108.882ZM267.172 54.002V108H256V101.63C254.236 103.851 251.916 105.615 249.042 106.922C246.232 108.163 243.227 108.784 240.026 108.784C235.779 108.784 231.957 107.902 228.56 106.138C225.228 104.374 222.582 101.761 220.622 98.298C218.727 94.8353 217.78 90.654 217.78 85.754V54.002H228.854V84.088C228.854 88.9227 230.062 92.6467 232.48 95.26C234.897 97.808 238.196 99.082 242.378 99.082C246.559 99.082 249.858 97.808 252.276 95.26C254.758 92.6467 256 88.9227 256 84.088V54.002H267.172ZM289.654 61.94C291.549 59.4573 294.13 57.3667 297.396 55.668C300.663 53.9693 304.354 53.12 308.47 53.12C313.174 53.12 317.454 54.296 321.308 56.648C325.228 58.9347 328.299 62.1687 330.52 66.35C332.742 70.5313 333.852 75.3333 333.852 80.756C333.852 86.1787 332.742 91.046 330.52 95.358C328.299 99.6047 325.228 102.937 321.308 105.354C317.454 107.706 313.174 108.882 308.47 108.882C304.354 108.882 300.696 108.065 297.494 106.432C294.293 104.733 291.68 102.643 289.654 100.16V133.676H278.482V54.002H289.654V61.94ZM322.484 80.756C322.484 77.032 321.7 73.8307 320.132 71.152C318.63 68.408 316.604 66.35 314.056 64.978C311.574 63.5407 308.895 62.822 306.02 62.822C303.211 62.822 300.532 63.5407 297.984 64.978C295.502 66.4153 293.476 68.506 291.908 71.25C290.406 73.994 289.654 77.228 289.654 80.952C289.654 84.676 290.406 87.9427 291.908 90.752C293.476 93.496 295.502 95.5867 297.984 97.024C300.532 98.4613 303.211 99.18 306.02 99.18C308.895 99.18 311.574 98.4613 314.056 97.024C316.604 95.5213 318.63 93.3653 320.132 90.556C321.7 87.7467 322.484 84.48 322.484 80.756ZM390.96 79.678C390.96 81.7033 390.83 83.5327 390.568 85.166H349.31C349.637 89.478 351.237 92.9407 354.112 95.554C356.987 98.1673 360.515 99.474 364.696 99.474C370.707 99.474 374.953 96.9587 377.436 91.928H389.49C387.857 96.8933 384.884 100.977 380.572 104.178C376.325 107.314 371.033 108.882 364.696 108.882C359.535 108.882 354.896 107.739 350.78 105.452C346.729 103.1 343.528 99.8333 341.176 95.652C338.889 91.4053 337.746 86.5053 337.746 80.952C337.746 75.3987 338.857 70.5313 341.078 66.35C343.365 62.1033 346.533 58.8367 350.584 56.55C354.7 54.2633 359.404 53.12 364.696 53.12C369.792 53.12 374.333 54.2307 378.318 56.452C382.303 58.6733 385.407 61.8093 387.628 65.86C389.849 69.8453 390.96 74.4513 390.96 79.678ZM379.298 76.15C379.233 72.034 377.763 68.7347 374.888 66.252C372.013 63.7693 368.453 62.528 364.206 62.528C360.351 62.528 357.052 63.7693 354.308 66.252C351.564 68.6693 349.931 71.9687 349.408 76.15H379.298ZM409.697 61.842C411.33 59.098 413.486 56.9747 416.165 55.472C418.909 53.904 422.143 53.12 425.867 53.12V64.684H423.025C418.647 64.684 415.315 65.7947 413.029 68.016C410.807 70.2373 409.697 74.092 409.697 79.58V108H398.525V54.002H409.697V61.842ZM459.95 53.12C464.197 53.12 467.986 54.002 471.318 55.766C474.715 57.53 477.361 60.1433 479.256 63.606C481.151 67.0687 482.098 71.25 482.098 76.15V108H471.024V77.816C471.024 72.9813 469.815 69.29 467.398 66.742C464.981 64.1287 461.681 62.822 457.5 62.822C453.319 62.822 449.987 64.1287 447.504 66.742C445.087 69.29 443.878 72.9813 443.878 77.816V108H432.706V54.002H443.878V60.176C445.707 57.9547 448.027 56.2233 450.836 54.982C453.711 53.7407 456.749 53.12 459.95 53.12ZM516.34 108.882C511.244 108.882 506.638 107.739 502.522 105.452C498.406 103.1 495.172 99.8333 492.82 95.652C490.468 91.4053 489.292 86.5053 489.292 80.952C489.292 75.464 490.501 70.5967 492.918 66.35C495.336 62.1033 498.635 58.8367 502.816 56.55C506.998 54.2633 511.669 53.12 516.83 53.12C521.992 53.12 526.663 54.2633 530.844 56.55C535.026 58.8367 538.325 62.1033 540.742 66.35C543.16 70.5967 544.368 75.464 544.368 80.952C544.368 86.44 543.127 91.3073 540.644 95.554C538.162 99.8007 534.764 103.1 530.452 105.452C526.206 107.739 521.502 108.882 516.34 108.882ZM516.34 99.18C519.215 99.18 521.894 98.494 524.376 97.122C526.924 95.75 528.982 93.692 530.55 90.948C532.118 88.204 532.902 84.872 532.902 80.952C532.902 77.032 532.151 73.7327 530.648 71.054C529.146 68.31 527.153 66.252 524.67 64.88C522.188 63.508 519.509 62.822 516.634 62.822C513.76 62.822 511.081 63.508 508.598 64.88C506.181 66.252 504.254 68.31 502.816 71.054C501.379 73.7327 500.66 77.032 500.66 80.952C500.66 86.7667 502.13 91.2747 505.07 94.476C508.076 97.612 511.832 99.18 516.34 99.18ZM572.857 98.004L588.145 54.002H600.003L579.423 108H566.095L545.613 54.002H557.569L572.857 98.004ZM601.293 80.756C601.293 75.3333 602.404 70.5313 604.625 66.35C606.912 62.1687 609.983 58.9347 613.837 56.648C617.757 54.296 622.069 53.12 626.773 53.12C631.02 53.12 634.711 53.9693 637.847 55.668C641.049 57.3013 643.597 59.3593 645.491 61.842V54.002H656.761V108H645.491V99.964C643.597 102.512 641.016 104.635 637.749 106.334C634.483 108.033 630.759 108.882 626.577 108.882C621.939 108.882 617.692 107.706 613.837 105.354C609.983 102.937 606.912 99.6047 604.625 95.358C602.404 91.046 601.293 86.1787 601.293 80.756ZM645.491 80.952C645.491 77.228 644.707 73.994 643.139 71.25C641.637 68.506 639.644 66.4153 637.161 64.978C634.679 63.5407 632 62.822 629.125 62.822C626.251 62.822 623.572 63.5407 621.089 64.978C618.607 66.35 616.581 68.408 615.013 71.152C613.511 73.8307 612.759 77.032 612.759 80.756C612.759 84.48 613.511 87.7467 615.013 90.556C616.581 93.3653 618.607 95.5213 621.089 97.024C623.637 98.4613 626.316 99.18 629.125 99.18C632 99.18 634.679 98.4613 637.161 97.024C639.644 95.5867 641.637 93.496 643.139 90.752C644.707 87.9427 645.491 84.676 645.491 80.952Z" fill="black"/>
</svg>
