<svg width="90" height="40" viewBox="0 0 143 66" fill="none" xmlns="http://www.w3.org/2000/svg">
<g clip-path="url(#clip0_4041_229)">
<path fill-rule="evenodd" clip-rule="evenodd" d="M71.6794 0.749606L65.937 2.41368L65.9886 5.64617L56.9586 11.3499V1.26923H50.704V27.923H56.9586V20.2282L61.2977 17.4302L66.2232 27.923H73.3377L66.6531 13.9865L69.7023 12.0494C71.4223 10.9194 72.165 9.25136 72.165 6.66855V0.749606H71.6794ZM26.5189 0H7.87647V6.33421H14.393V27.923H20.6475V6.33421H26.5189V0ZM37.242 28.461C31.0265 28.461 26.1011 23.8335 26.1011 14.3093C26.1011 4.83906 31.0265 0.211516 37.242 0.211516C43.4184 0.211516 48.3439 4.83906 48.3439 14.3093C48.3439 23.8335 43.4184 28.461 37.242 28.461ZM37.242 7.74471C34.271 7.74471 32.3556 9.78944 32.3556 14.3093C32.3556 18.8831 34.271 20.9278 37.242 20.9278C40.1738 20.9278 42.0892 18.8831 42.0892 14.3093C42.0892 9.78944 40.1738 7.74471 37.242 7.74471ZM84.8061 28.461C77.2225 28.461 73.7434 21.6811 73.7434 13.9865C73.7434 5.37713 78.0043 0.211516 84.1415 0.211516C90.2789 0.211516 94.5785 5.21571 94.5785 13.4484V16.1388H79.6069C79.6069 19.2597 81.2488 21.4659 84.8061 21.4659C86.9952 21.4659 88.637 20.3897 89.0279 18.345H95.2821C94.892 22.273 91.6471 28.461 84.8061 28.461ZM84.1415 7.20663C80.6624 7.20663 79.6069 9.25135 79.6069 11.2961H88.7152C88.7152 9.25135 87.6206 7.20663 84.1415 7.20663ZM113.952 14.5784C113.952 9.628 112.897 7.74471 109.886 7.74471C106.485 7.74471 104.258 10.2199 104.258 17.8607V27.923H98.0031V0.749606H104.258V4.03193L103.085 8.87469H104.649C105.43 4.03193 107.892 0.211516 112.115 0.211516C117.157 0.211516 120.207 4.83904 120.207 13.2331V27.923H113.952V14.5784ZM134.819 11.9252C138.474 13.5591 141.724 15.0125 141.724 20.4435C141.724 25.0173 139.34 28.461 132.538 28.461C125.267 28.461 122.14 24.4253 122.14 18.076H128.395C128.395 20.1744 129.45 22.004 132.733 22.004C134.414 22.004 135.47 21.4659 135.47 20.1744C135.47 18.8876 134.544 18.4658 131.931 17.2756C131.703 17.1719 131.463 17.0624 131.209 16.946C130.87 16.7919 130.524 16.6406 130.174 16.4882C126.742 14.9891 123.039 13.3712 123.039 7.85232C123.039 3.00956 126.206 0.211516 131.639 0.211516C138.324 0.211516 141.06 4.78524 141.06 10.0585H134.805C134.805 8.12136 133.75 6.66855 131.6 6.66855C130.115 6.66855 129.294 7.15281 129.294 8.22898C129.294 9.45832 131.065 10.2488 133.933 11.5288L134.375 11.7265C134.523 11.7927 134.67 11.8584 134.815 11.9237L134.819 11.9252ZM25.8969 33V36.5857H21.2059V44.119H25.8969V59.7234C25.8969 62.6829 27.0696 64.4047 29.2196 64.2971L39.4224 63.759V56.2258L32.1515 56.7639V44.119H38.6406V36.5857H32.1515V33H25.8969ZM89.6853 33V63.759H83.4307V62.0909L84.6035 57.2481H83.0398C82.0234 60.8534 80.1471 64.2971 75.2607 64.2971C69.5534 64.2971 66.6998 57.8401 66.6998 50.1454C66.6998 42.4508 69.5534 36.0477 75.2607 36.0477C80.1471 36.0477 82.0234 39.4914 83.0398 43.0966H84.6035L83.4307 38.2537V33H89.6853ZM13.518 47.7613C17.1726 49.3952 20.4236 50.8486 20.4236 56.2796C20.4236 60.8534 18.039 64.2971 11.2371 64.2971C3.96615 64.2971 0.838867 60.2614 0.838867 53.9121H7.09345C7.09345 56.0106 8.1489 57.8401 11.4326 57.8401C13.1135 57.8401 14.1689 57.302 14.1689 56.0106C14.1689 54.7236 13.2428 54.3019 10.6299 53.1117C10.4022 53.008 10.1617 52.8985 9.90799 52.7821C9.56872 52.628 9.22244 52.4769 8.87334 52.3243C5.44161 50.8252 1.73796 49.2074 1.73796 43.6884C1.73796 38.8457 4.90434 36.0477 10.338 36.0477C17.0226 36.0477 19.759 40.6213 19.759 45.8946H13.5044C13.5044 43.9575 12.449 42.5046 10.2989 42.5046C8.81345 42.5046 7.99254 42.989 7.99254 44.0652C7.99254 45.2944 9.76368 46.0849 12.6317 47.3649L13.0744 47.5626C13.2227 47.6293 13.3709 47.6955 13.518 47.7613ZM48.417 49.9303C48.417 54.8806 49.4725 56.7639 52.4825 56.7639C55.8834 56.7639 58.1116 54.2887 58.1116 46.6479V36.5857H64.3662V63.759H58.1116V60.4767L59.2843 55.6339H57.7207C56.9389 60.4767 54.4762 64.2971 50.2543 64.2971C45.2116 64.2971 42.1625 59.6696 42.1625 51.2754V36.5857H48.417V49.9303ZM78.1926 56.7639C81.5544 56.7639 83.4307 54.7192 83.4307 50.1454C83.4307 45.5717 81.5544 43.5808 78.1926 43.5808C74.8307 43.5808 72.9543 45.5717 72.9543 50.1454C72.9543 54.7192 74.8307 56.7639 78.1926 56.7639ZM104.695 50.9055C104.695 60.4296 109.62 65.0572 115.835 65.0572C122.012 65.0572 126.938 60.4296 126.938 50.9055C126.938 41.4352 122.012 36.8077 115.835 36.8077C109.62 36.8077 104.695 41.4352 104.695 50.9055ZM110.949 50.9055C110.949 46.3856 112.864 44.3408 115.835 44.3408C118.767 44.3408 120.683 46.3856 120.683 50.9055C120.683 55.4792 118.767 57.5239 115.835 57.5239C112.864 57.5239 110.949 55.4792 110.949 50.9055ZM94.5518 43.6773L101.006 43.0427V63.4615H94.5518V43.6773Z" fill="black"/>
<path d="M94.5518 39.8038L101.006 39.1692V32.9342H94.5518V39.8038Z" fill="black"/>
</g>
<defs>
<clipPath id="clip0_4041_229">
<rect width="160" height="80" fill="white" transform="translate(0.5)"/>
</clipPath>
</defs>
</svg>
