<?xml version="1.0" encoding="UTF-8"?> <svg xmlns="http://www.w3.org/2000/svg" width="4033" height="309" viewBox="0 0 4033 309" fill="none"> <path d="M2449.83 211.33C2449.83 228.465 2445.54 245.6 2435.53 259.879C2426.95 274.158 2412.65 285.581 2394.06 294.149C2375.47 302.716 2352.58 307 2325.41 307C2302.53 307 2281.08 304.144 2259.62 298.433C2238.17 292.721 2221.01 284.154 2208.14 274.158L2251.04 222.753C2259.62 227.037 2268.2 231.321 2278.22 234.177C2295.38 239.888 2311.11 242.744 2326.84 242.744C2356.87 242.744 2372.61 234.177 2372.61 218.47C2372.61 209.902 2368.31 204.191 2359.73 199.907C2351.15 195.623 2336.85 191.34 2318.26 187.056C2296.81 182.772 2279.65 177.06 2265.34 171.349C2251.04 165.637 2239.6 157.07 2228.16 145.647C2218.15 134.223 2212.43 117.088 2212.43 97.0977C2212.43 78.5349 2216.72 62.8279 2226.73 48.5488C2235.31 34.2698 2249.61 22.8465 2268.21 14.2791C2286.8 5.71163 2309.68 1.42791 2336.85 1.42791C2355.44 1.42791 2374.04 4.28372 2391.2 8.56744C2408.36 12.8512 2425.52 19.9907 2438.39 27.1302L2394.06 79.9628C2374.04 71.3953 2354.01 67.1116 2335.42 67.1116C2319.69 67.1116 2308.25 69.9674 2301.1 74.2512C2293.95 78.5349 2289.66 85.6744 2289.66 92.814C2289.66 101.381 2293.95 107.093 2302.53 109.949C2311.11 114.233 2325.41 118.516 2344 122.8C2365.45 127.084 2382.62 132.795 2396.92 138.507C2411.22 144.219 2422.66 152.786 2434.1 164.209C2445.54 175.633 2449.83 191.34 2449.83 211.33ZM4033 211.33C4033 228.465 4028.71 245.6 4018.7 259.879C4010.12 274.158 3995.82 285.581 3975.79 294.149C3957.2 302.716 3934.32 307 3907.15 307C3884.27 307 3862.81 304.144 3841.36 298.433C3819.91 292.721 3802.75 284.154 3789.88 274.158L3832.78 222.753C3841.36 227.037 3849.94 231.321 3859.95 234.177C3877.11 239.888 3892.85 242.744 3908.58 242.744C3938.61 242.744 3954.34 234.177 3954.34 218.47C3954.34 209.902 3950.05 204.191 3941.47 199.907C3932.89 195.623 3918.59 191.34 3900 187.056C3878.54 182.772 3861.38 177.06 3847.08 171.349C3832.78 165.637 3821.34 157.07 3811.33 145.647C3801.32 134.223 3795.6 117.088 3795.6 97.0977C3795.6 78.5349 3799.89 62.8279 3809.9 48.5488C3818.48 34.2698 3832.78 22.8465 3851.37 14.2791C3869.96 5.71163 3892.85 1.42791 3920.02 1.42791C3938.61 1.42791 3957.2 4.28372 3974.36 8.56744C3991.53 12.8512 4008.69 19.9907 4021.56 27.1302L3977.22 79.9628C3957.2 71.3953 3937.18 67.1116 3918.59 67.1116C3902.86 67.1116 3891.42 69.9674 3884.27 74.2512C3877.11 78.5349 3872.82 85.6744 3872.82 92.814C3872.82 101.381 3877.11 107.093 3885.7 109.949C3894.28 114.233 3908.58 118.516 3927.17 122.8C3948.62 127.084 3965.78 132.795 3980.08 138.507C3994.39 144.219 4005.83 152.786 4017.27 164.209C4027.28 175.633 4033 191.34 4033 211.33ZM530.583 115.66C530.583 138.507 524.862 157.07 514.851 174.205C504.84 191.34 490.539 202.763 471.947 211.33C453.355 219.898 430.473 224.181 406.16 224.181H357.535V301.288H277.448V5.71163H406.16C431.903 5.71163 453.355 9.99535 471.947 18.5628C490.539 28.5581 504.84 41.4093 514.851 57.1163C524.862 74.2512 530.583 92.814 530.583 115.66ZM450.495 115.66C450.495 101.381 446.204 91.386 437.623 84.2465C429.043 75.6791 417.601 71.3953 400.44 71.3953H356.105V158.498H400.44C416.171 158.498 429.043 154.214 437.623 147.074C446.204 139.935 450.495 128.512 450.495 115.66ZM786.578 237.033V301.288H563.476V5.71163H782.288V69.9674H642.134V119.944H753.685V182.772H642.134V237.033H786.578ZM1091.2 5.71163V301.288H1025.41L900.989 144.219V301.288H823.762V5.71163H889.548L1013.97 162.781V5.71163H1091.2V5.71163ZM1597.47 235.605V301.288H1398.68V5.71163H1478.77V234.177C1477.34 235.605 1597.47 235.605 1597.47 235.605ZM1940.7 301.288H1859.18L1837.73 244.172H1719.03L1697.58 301.288H1616.06L1740.48 5.71163H1819.14L1940.7 301.288ZM1813.42 182.772L1777.67 88.5302L1741.91 182.772H1813.42ZM2190.98 211.33C2190.98 228.465 2186.69 245.6 2176.68 259.879C2168.09 274.158 2153.79 285.581 2135.2 294.149C2116.61 302.716 2093.73 307 2066.55 307C2043.67 307 2022.22 304.144 2000.77 298.433C1979.32 292.721 1962.15 284.154 1949.28 274.158L1992.19 222.753C2000.77 227.037 2009.35 231.321 2019.36 234.177C2036.52 239.888 2052.25 242.744 2067.99 242.744C2098.02 242.744 2113.75 234.177 2113.75 218.47C2113.75 209.902 2109.46 204.191 2100.88 199.907C2092.3 195.623 2078 191.34 2059.4 187.056C2037.95 182.772 2020.79 177.06 2006.49 171.349C1992.19 165.637 1980.75 157.07 1969.31 145.647C1957.86 134.223 1953.57 117.088 1953.57 97.0977C1953.57 78.5349 1957.86 62.8279 1967.88 48.5488C1976.46 34.2698 1990.76 22.8465 2009.35 14.2791C2027.94 5.71163 2050.82 1.42791 2078 1.42791C2096.59 1.42791 2115.18 4.28372 2132.34 8.56744C2149.5 12.8512 2166.66 19.9907 2179.54 27.1302L2135.2 79.9628C2115.18 71.3953 2095.16 67.1116 2076.57 67.1116C2060.83 67.1116 2049.39 69.9674 2042.24 74.2512C2035.09 78.5349 2030.8 85.6744 2030.8 92.814C2030.8 101.381 2035.09 107.093 2043.67 109.949C2052.25 114.233 2066.55 118.516 2085.15 122.8C2106.6 127.084 2123.76 132.795 2138.06 138.507C2152.36 144.219 2163.8 152.786 2175.25 164.209C2186.69 175.633 2190.98 191.34 2190.98 211.33ZM244.554 154.214C244.554 238.46 175.907 308.428 90.0989 308.428C55.7755 308.428 24.3124 297.005 0 278.442L51.4851 217.042C62.9262 224.181 75.7975 228.465 90.0989 228.465C130.143 228.465 163.036 195.623 163.036 155.642C163.036 115.66 130.143 82.8186 90.0989 82.8186C75.7975 82.8186 62.9262 87.1023 51.4851 94.2419L0 29.986C25.7426 11.4233 57.2057 0 90.0989 0C175.907 0 244.554 68.5395 244.554 154.214ZM1315.73 215.614L1367.22 277.014C1341.47 295.577 1310.01 307 1277.12 307C1192.74 307 1122.66 238.46 1122.66 152.786C1122.66 68.5395 1192.74 0 1277.12 0C1311.44 0 1342.9 11.4233 1367.22 29.986L1315.73 91.386C1304.29 84.2465 1291.42 79.9628 1277.12 79.9628C1237.07 79.9628 1204.18 112.805 1204.18 152.786C1204.18 192.767 1237.07 225.609 1277.12 225.609C1291.42 227.037 1304.29 222.753 1315.73 215.614ZM2741.58 301.288L2678.66 209.902C2695.82 201.335 2710.12 188.484 2720.13 172.777C2730.14 157.07 2735.86 137.079 2735.86 114.233C2735.86 91.386 2730.14 72.8233 2720.13 55.6884C2710.12 38.5535 2695.82 27.1302 2677.23 17.1349C2658.63 8.56744 2635.75 4.28372 2611.44 4.28372H2482.73V299.86H2561.38V222.753H2598.57L2651.48 299.86L2741.58 301.288ZM2561.38 71.3953H2607.15C2622.88 71.3953 2635.75 75.6791 2644.33 82.8186C2652.91 89.9581 2657.2 101.381 2657.2 114.233C2657.2 128.512 2652.91 138.507 2644.33 145.647C2635.75 152.786 2624.31 157.07 2607.15 157.07H2561.38V71.3953ZM2920.35 0C3004.73 0 3074.8 68.5395 3074.8 154.214C3074.8 239.888 3006.16 308.428 2920.35 308.428C2835.97 308.428 2765.89 239.888 2765.89 154.214C2765.89 68.5395 2835.97 0 2920.35 0ZM2843.12 154.214C2843.12 197.051 2877.45 231.321 2920.35 231.321C2963.25 231.321 2997.58 197.051 2997.58 154.214C2997.58 111.377 2963.25 77.107 2920.35 77.107C2877.45 77.107 2843.12 111.377 2843.12 154.214ZM3253.57 0C3337.95 0 3408.03 68.5395 3408.03 154.214C3408.03 239.888 3339.38 308.428 3253.57 308.428C3167.76 308.428 3099.12 239.888 3099.12 154.214C3099.12 68.5395 3167.76 0 3253.57 0ZM3174.91 154.214C3174.91 197.051 3209.24 231.321 3252.14 231.321C3295.05 231.321 3329.37 197.051 3329.37 154.214C3329.37 111.377 3295.05 77.107 3252.14 77.107C3209.24 77.107 3174.91 111.377 3174.91 154.214ZM3601.1 194.195L3506.71 5.71163H3440.92V301.288H3512.43V171.349L3582.51 301.288H3623.98L3694.06 171.349V301.288H3765.56V5.71163H3699.78L3601.1 194.195Z" fill="#7451EB"></path> </svg> 