<svg xmlns="http://www.w3.org/2000/svg" width="475" height="61" fill="none">
  <path fill="#8A76E8" d="M344 41.5c0 3.3-.8 6.7-2.8 9.4-2 2.8-4.4 5-8 6.6a32 32 0 0 1-13.4 2.5c-4.4 0-8.6-.5-12.8-1.6a28 28 0 0 1-10-4.7l8.3-10c1.7.9 3.4 1.4 5.3 2.3 3.4 1 6.4 1.6 9.5 1.6 5.8 0 8.9-1.6 8.9-4.7 0-1.6-.9-2.7-2.5-3.6-1.7-.8-4.5-1.6-8-2.4a58 58 0 0 1-10.4-3c-2.8-1.2-5-2.8-7.2-5a14 14 0 0 1-3-9.4c0-3.6.8-6.6 2.7-9.4 2-2.8 4.5-5 8-6.6A32 32 0 0 1 322 1a44.3 44.3 0 0 1 19.8 5L333 16.2a29.4 29.4 0 0 0-11.3-2.5c-3.1 0-5.3.5-6.7 1.4a4.3 4.3 0 0 0-2.2 3.5c0 1.7.8 2.8 2.5 3.4 1.6.8 4.4 1.6 8 2.4 4.2.9 7.5 2 10.3 3 2.8 1.2 5 2.8 7.2 5 2 2 3 5.3 3 9.1ZM178.3 46v14h-38.6V1h15.5v44.7h23.1v.3ZM245 60H229l-4.2-12.1h-23l-4.2 12h-15.9L205.8 1h15.3l24 59Zm-24.7-24.3-7-18.2-7 18.2h14Zm73.4 5.8c0 3.3-.9 6.7-2.8 9.4-2 2.8-4.5 5-8 6.6a32 32 0 0 1-13.4 2.5c-4.5 0-8.6-.5-12.8-1.6a28 28 0 0 1-10-4.7l8.3-10c1.7.9 3.4 1.4 5.3 2.3 3.3 1 6.4 1.6 9.5 1.6 5.8 0 8.9-1.6 8.9-4.7 0-1.6-.9-2.7-2.5-3.6-1.7-.8-4.5-1.6-8.1-2.4a58 58 0 0 1-10.3-3c-2.8-1.2-5-2.8-7.2-5a14 14 0 0 1-3-9.4c0-3.6.8-6.6 2.7-9.4 2-2.8 4.5-5 8-6.6A32 32 0 0 1 271.8 1a44.3 44.3 0 0 1 19.7 5l-8.6 10.2a29.4 29.4 0 0 0-11.4-2.5c-3 0-5.3.5-6.6 1.4a4.3 4.3 0 0 0-2.3 3.5c0 1.7.9 2.8 2.5 3.4 1.7.8 4.5 1.6 8.1 2.4 4.2.9 7.5 2 10.3 3 2.8 1.2 5 2.8 7.2 5 2 2 3 5.3 3 9.1Zm-170.2.9 10 11.8a30 30 0 0 1-47.5-24A29.5 29.5 0 0 1 116 1c6.7 0 12.5 1.7 17.5 5.2l-10 11.9a14 14 0 1 0-7.5 26c2.8.5 5.3-.4 7.5-1.7ZM389.4 60V35.7H411v-12h-21.6V14h27.2V1h-42.5v59h15.3ZM456.3 60V23.7h-15.6V60h15.6Z"/>
  <path fill="#8A76E8" d="m456.4 30.8-6.3-11-.2-.2L439.5 1H422l21 37.5 13.4-7.7Z"/>
  <path fill="#8A76E8" d="m440.6 30.8 6.3-11 .2-.2L457.4 1H475l-21 37.5-13.4-7.7Z"/>
  <path fill="#8A76E8" fill-rule="evenodd" d="M366 1h-16v59h16V1Zm-8 15.7a5 5 0 0 0 5-4.9 5 5 0 0 0-5-4.9 5 5 0 0 0-5 5 5 5 0 0 0 5 4.8Z" clip-rule="evenodd"/>
  <path fill="#FF7B6D" d="M1 2h16v58H1z"/>
  <path fill="#F2E93F" d="M21 2h16v58H21z"/>
  <path fill="#9CC7F2" fill-rule="evenodd" d="M46.2 60 62 58 53.7.5 37.9 2.6 46.2 60ZM52 44.2a5 5 0 0 0-4.2 5.6 5 5 0 0 0 5.7 4.2 5 5 0 0 0 4.2-5.6 5 5 0 0 0-5.7-4.2Z" clip-rule="evenodd"/>
</svg>
