<svg xmlns="http://www.w3.org/2000/svg" width="456" height="35" fill="none">
  <path fill="#8A76E8" d="M277.2 24a9 9 0 0 1-1.7 5.5 11.2 11.2 0 0 1-4.6 3.9 26 26 0 0 1-15.2.4c-2.5-.6-4.4-1.5-5.9-2.7l4.9-5.8 3 1.3c2 .7 3.8 1 5.6 1 3.3 0 5.1-1 5.1-2.8 0-1-.5-1.6-1.4-2-1-.5-2.6-1-4.7-1.5-2.4-.5-4.4-1.1-6-1.8a11 11 0 0 1-4.2-2.9 8.3 8.3 0 0 1-1.8-5.5c0-2 .5-3.8 1.6-5.5 1.2-1.6 2.6-2.9 4.7-3.8a18 18 0 0 1 7.8-1.5 25.7 25.7 0 0 1 11.5 3l-5 5.9a17 17 0 0 0-6.7-1.5c-1.8 0-3 .4-3.9.8-.8.5-1.3 1.3-1.3 2.1 0 1 .5 1.7 1.5 2 1 .5 2.6 1 4.7 1.4a40 40 0 0 1 6 1.8 12 12 0 0 1 4.2 3c1.1 1 1.8 3 1.8 5.2ZM456 24c0 2-.5 3.9-1.6 5.5a11.2 11.2 0 0 1-4.7 3.9 26 26 0 0 1-15.2.4c-2.4-.6-4.4-1.5-5.8-2.7l4.8-5.8 3.1 1.3c2 .7 3.7 1 5.5 1 3.4 0 5.2-1 5.2-2.8 0-1-.5-1.6-1.5-2-1-.5-2.6-1-4.7-1.5-2.4-.5-4.3-1.1-6-1.8-1.6-.6-2.9-1.6-4.2-2.9a8.3 8.3 0 0 1-1.7-5.5 9 9 0 0 1 1.6-5.5c1.1-1.6 2.6-2.9 4.7-3.8 2-1 4.7-1.5 7.7-1.5a25.6 25.6 0 0 1 11.5 3l-5 5.9a17 17 0 0 0-6.6-1.5c-1.8 0-3.1.4-4 .8-.7.5-1.2 1.3-1.2 2.1 0 1 .5 1.7 1.4 2 1 .5 2.6 1 4.7 1.4 2.5.5 4.4 1.2 6 1.8 1.6.7 3 1.6 4.2 3 1.3 1 1.8 3 1.8 5.2ZM60 13a11.2 11.2 0 0 1-6.6 10.6 18 18 0 0 1-7.5 1.6h-5.5v8.7h-9V.5h14.5c3 0 5.4.5 7.5 1.4A12.2 12.2 0 0 1 60 13.1Zm-9 0c0-1.5-.5-2.7-1.5-3.5-1-.8-2.3-1.3-4.2-1.3h-5v9.9h5c1.8 0 3.2-.5 4.2-1.3s1.4-2.1 1.4-3.7Zm38 14v7.2H63.7V.8h24.8v7.3H72.6v5.6h12.6v7.1H72.6V27h16.5ZM123.4.7v33.4h-7.5l-14-17.7v17.7h-9V.8h7.5l14 17.7V.8h9Zm57.4 25.8V34h-22.5V.6h9v25.9h13.5v.1Zm38.8 7.6h-9.4l-2.4-6.5h-13.4l-2.5 6.5h-9.2l14-33.4h9l13.9 33.4Zm-14.4-13.6-4-10.6-4 10.6h8Zm42.7 3.4c0 2-.5 3.9-1.6 5.5a11.2 11.2 0 0 1-4.7 3.9 26 26 0 0 1-15.2.4c-2.4-.6-4.4-1.5-5.8-2.7l4.8-5.8 3 1.3c2 .7 3.8 1 5.6 1 3.4 0 5.2-1 5.2-2.8 0-1-.5-1.6-1.5-2-1-.5-2.6-1-4.7-1.5-2.4-.5-4.4-1.1-6-1.8-1.6-.6-2.9-1.6-4.2-2.9A8.3 8.3 0 0 1 221 11c0-2 .5-3.8 1.7-5.5 1.1-1.6 2.6-2.9 4.7-3.8 2-1 4.6-1.5 7.7-1.5a25.7 25.7 0 0 1 11.5 3l-5 5.9a17 17 0 0 0-6.6-1.5c-1.8 0-3.1.4-4 .8-.7.5-1.2 1.3-1.2 2.1 0 1 .5 1.7 1.4 2 1 .5 2.6 1 4.7 1.4a40 40 0 0 1 6 1.8c1.6.7 3 1.6 4.2 3 1.1 1 1.8 3 1.8 5.2ZM27.7 17.4A17.5 17.5 0 0 1 0 31.5l5.8-7a8.3 8.3 0 0 0 12.6-7 8.1 8.1 0 0 0-12.6-7L0 3.8a17.2 17.2 0 0 1 27.7 13.6Zm121.2 7.1 5.8 7a17.5 17.5 0 0 1-27.7-14c.2-9.7 8-17.5 17.7-17.5a17 17 0 0 1 10.1 3.4l-5.8 7a8.1 8.1 0 0 0-4.3-1.4 8.3 8.3 0 0 0-8.3 8.3c0 4.5 3.7 8.2 8.3 8.2a6 6 0 0 0 4.3-1Zm161.2 9.7-7-10.3c2-1 3.5-2.4 4.6-4.2a12 12 0 0 0 1.8-6.5 11.9 11.9 0 0 0-6.6-10.9 18 18 0 0 0-7.5-1.5H281v33.4h8.9v-8.7h4.2l6 8.7h9.9Zm-20.3-26h5.1c1.8 0 3.3.5 4.2 1.3 1 .8 1.5 2.1 1.5 3.6 0 1.6-.5 2.7-1.5 3.5-1 .8-2.2 1.3-4.2 1.3h-5.1V8.2Zm40.6-8a17.4 17.4 0 1 1 0 34.8 17.4 17.4 0 1 1 0-34.8Zm-9 17.2c0 4.9 4 8.7 8.8 8.7a8.7 8.7 0 0 0 0-17.4 8.8 8.8 0 0 0-8.7 8.7ZM368 .2a17.4 17.4 0 1 1 0 34.8 17.4 17.4 0 1 1 0-34.8Zm-9 17.2c0 4.9 4 8.7 8.8 8.7a8.7 8.7 0 0 0 0-17.4 8.7 8.7 0 0 0-8.8 8.7Zm48 4.7L396.6.8H389v33.4h7.9V19.5l7.9 14.7h4.7l8-14.7v14.7h7.8V.8H418l-10.8 21.3Z"/>
</svg>
